<?xml version="1.0" encoding="UTF-8" standalone="no"?>
<!DOCTYPE svg PUBLIC "-//W3C//DTD SVG 1.0//EN" "http://www.w3.org/TR/2001/REC-SVG-20010904/DTD/svg10.dtd">
<!-- Created with Inkscape (http://www.inkscape.org/) by Steadfast-->
<svg
   xmlns:svg="http://www.w3.org/2000/svg"
   xmlns="http://www.w3.org/2000/svg"
   version="1.0"
   width="500"
   height="143"
   id="svg5982">
  <defs
     id="defs5984" />
  <g
     id="layer1">
    <g
       transform="matrix(3.540967,0,0,3.540967,-890.49992,-750.67049)"
       id="g5976">
      <path
         d="M 454.44239,258.4454 A 7.5130095,7.5130095 0 1 1 439.41637,258.4454 A 7.5130095,7.5130095 0 1 1 454.44239,258.4454 z"
         transform="matrix(2.3033379,0,0,2.3033379,-707.34225,-363.09897)"
         id="path5194"
         style="opacity:1;fill:#32639f;fill-opacity:1;fill-rule:evenodd;stroke:none;stroke-width:7;stroke-linecap:round;stroke-linejoin:round;stroke-miterlimit:4;stroke-dasharray:none;stroke-opacity:1" />
      <path
         d="M 454.44239,258.4454 A 7.5130095,7.5130095 0 1 1 439.41637,258.4454 A 7.5130095,7.5130095 0 1 1 454.44239,258.4454 z"
         transform="matrix(2.0127509,0,0,2.0127509,-577.47038,-287.9981)"
         id="path5970"
         style="opacity:1;fill:none;fill-opacity:1;fill-rule:evenodd;stroke:#e19839;stroke-width:0.86945683;stroke-linecap:round;stroke-linejoin:round;stroke-miterlimit:4;stroke-dasharray:none;stroke-opacity:1" />
      <path
         d="M 364.89154,221.9975 C 361.14779,221.9975 339.39154,222.0225 339.39154,222.0225 C 339.39154,222.0225 287.14779,221.9975 280.62529,221.9975 C 274.10404,221.9975 254.30904,222.7625 254.30904,231.88 C 254.30904,240.4025 272.48029,242.37875 281.20404,242.37875 L 365.54779,242.37875 C 369.32779,242.37875 390.12404,241.43625 389.86279,232.0275 C 389.64029,224.02375 370.59904,221.9975 364.89154,221.9975 M 278.38654,224.4675 L 365.04654,224.4675 C 369.04779,224.4675 378.82029,225.135 383.93404,228.39625 C 378.52404,226.76625 369.89529,226.6175 365.08404,226.63 C 360.27404,226.64125 283.90654,226.63 278.34779,226.63 C 272.78904,226.63 262.09029,227.435 260.09029,228.25125 C 266.68654,224.175 278.38654,224.4675 278.38654,224.4675 M 366.24279,239.90875 L 281.35904,239.90875 C 278.24654,239.90875 265.87029,240.045 260.16404,236.19 C 264.46279,237.59875 278.65529,237.74625 281.39779,237.74625 L 366.51279,237.74625 C 370.14529,237.74625 381.11779,237.21625 383.93404,236.32625 C 382.60029,237.4375 375.35904,239.90875 366.24279,239.90875 M 366.51654,235.585 C 354.21404,235.585 283.21654,235.585 278.69529,235.585 C 274.17404,235.585 261.88279,235.06 259.51029,233.5775 L 384.50029,233.5775 C 382.22279,234.9675 378.82654,235.585 366.51654,235.585 M 259.39529,231.1075 C 264.58279,229.255 273.76654,228.87125 277.76904,228.94625 C 281.77154,229.02 362.52654,228.94625 365.04654,228.94625 C 367.56529,228.94625 380.45029,229.43375 384.60029,231.13875 C 375.70779,231.13875 261.98154,231.1075 259.39529,231.1075"
         id="path5972"
         style="fill:#706d6e;fill-opacity:1;fill-rule:nonzero;stroke:none" />
      <path
         d="M 315.14776,221.99718 L 329.75,221.99718 L 329.75026,224.46918 L 324.42276,231.10718 L 326.16026,231.10718 L 326.16026,233.5775 L 322.45401,233.5775 L 317.45526,239.90875 L 329.82651,239.90875 L 329.82651,242.37875 L 314.34776,242.37875 L 314.34776,239.90875 L 319.44276,233.5775 L 317.59026,233.5775 L 317.59026,231.10718 L 321.21901,231.10718 L 326.93151,224.46918 L 315.14776,224.46918 L 315.14776,221.99718 z"
         id="path5974"
         style="fill:#ffffff;fill-opacity:1;fill-rule:nonzero;stroke:none" />
    </g>
  </g>
</svg>
